<svg width="100" height="157" viewBox="0 0 100 157" fill="none" xmlns="http://www.w3.org/2000/svg">
<path d="M86.3811 156.767H14.1923L16.971 59.1398C17.6603 41.2545 32.371 27.1182 50.2867 27.1182C68.2024 27.1182 82.906 41.2545 83.6024 59.1398L84.0004 73.049L84.6684 96.6285L86.3811 156.767Z" fill="#F99F4F"/>
<path d="M46.1373 39.3848C45.1758 40.0785 44.2471 41.7781 44.1524 43.2462" stroke="black" stroke-width="2" stroke-linecap="round"/>
<path d="M58.6638 42.5135C57.7023 43.2072 56.7736 44.9067 56.6789 46.3749" stroke="black" stroke-width="2" stroke-linecap="round"/>
<path d="M16.3719 71.3636C16.3719 71.3636 7.25696 129.151 5.97351 137.954C4.69006 146.756 8.56955 146.599 8.96254 146.656C9.35554 146.712 12.3673 143.138 13.2954 136.772C13.2954 136.772 12.4775 144.036 16.3435 144.519C20.2094 145.002 20.8895 134.827 20.8895 134.827C20.8895 134.827 18.9082 144.009 23.0102 144.526C27.1121 145.043 31.1302 118.658 32.3731 110.134L33.0504 105.49" fill="#F99F4F"/>
<path d="M16.3719 71.3636C16.3719 71.3636 7.25696 129.151 5.97351 137.954C4.69006 146.756 8.56955 146.599 8.96254 146.656C9.35554 146.712 12.3673 143.138 13.2954 136.772C13.2954 136.772 12.4775 144.036 16.3435 144.519C20.2094 145.002 20.8895 134.827 20.8895 134.827C20.8895 134.827 18.9082 144.009 23.0102 144.526C27.1121 145.043 31.1302 118.658 32.3731 110.134L33.0504 105.49" stroke="black" stroke-width="2" stroke-miterlimit="10" stroke-linecap="round" stroke-linejoin="round"/>
<path d="M84.3424 71.3636C84.3424 71.3636 93.4573 129.151 94.7407 137.954C96.0242 146.756 92.1447 146.599 91.7517 146.656C91.3587 146.712 88.3469 143.138 87.4188 136.772C87.4188 136.772 88.2368 144.036 84.3708 144.519C80.5048 145.002 79.8247 134.827 79.8247 134.827C79.8247 134.827 81.806 144.009 77.7041 144.526C73.6022 145.043 69.5841 118.658 68.3411 110.134L67.6639 105.49" fill="#F99F4F"/>
<path d="M84.3424 71.3636C84.3424 71.3636 93.4573 129.151 94.7407 137.954C96.0242 146.756 92.1447 146.599 91.7517 146.656C91.3587 146.712 88.3469 143.138 87.4188 136.772C87.4188 136.772 88.2368 144.036 84.3708 144.519C80.5048 145.002 79.8247 134.827 79.8247 134.827C79.8247 134.827 81.806 144.009 77.7041 144.526C73.6022 145.043 69.5841 118.658 68.3411 110.134L67.6639 105.49" stroke="black" stroke-width="2" stroke-miterlimit="10" stroke-linecap="round" stroke-linejoin="round"/>
<path d="M45.8993 52.2704C45.8993 52.2704 47.6872 54.1651 50.9898 54.7176C54.2924 55.2701 56.1237 54.2113 56.1237 54.2113" stroke="black" stroke-width="2" stroke-miterlimit="10" stroke-linecap="round"/>
<path fill-rule="evenodd" clip-rule="evenodd" d="M40.8768 49.628C40.6446 49.5828 40.4207 49.7346 40.3754 49.9668L40.3218 50.2417C39.2644 55.6617 42.8015 60.9103 48.2221 61.9649C53.6426 63.0195 58.894 59.4806 59.9514 54.0606L60.005 53.7857C60.0503 53.5535 59.8998 53.3289 59.6676 53.2837C58.2426 53.0065 53.4969 52.0832 50.2722 51.4559C47.0475 50.8285 42.3018 49.9052 40.8768 49.628Z" fill="black"/>
<path d="M54.5368 59.1457C54.1784 58.056 52.5589 57.8631 51.7246 58.1453C50.9984 58.4775 50.9809 58.9838 50.9809 58.9838C50.9809 58.9838 50.7488 58.5289 49.9277 58.4408C49.0072 58.3421 47.8264 58.8097 47.7245 60.1511C47.9509 60.216 48.1517 60.27 48.4301 60.3251C50.8344 60.8001 53.0721 60.167 54.5368 59.1457Z" fill="#F99F4F"/>
</svg>
