<svg width="100" height="157" viewBox="0 0 100 157" fill="none" xmlns="http://www.w3.org/2000/svg">
<path d="M85.7143 156.829H14.2857L17.0351 60.2299C17.7172 42.533 32.2729 28.5455 50 28.5455C67.727 28.5455 82.2757 42.533 82.9649 60.2299L83.3586 73.9925L84.0196 97.3238L85.7143 156.829Z" fill="#C0DCDF"/>
<path d="M29.2859 41.7478C33.5714 42.1046 33.9285 44.2456 34.0388 45.2148C33.5714 44.6024 31.4286 43.1751 29.2857 44.6024" stroke="black" stroke-width="2" stroke-linecap="round" stroke-linejoin="round"/>
<path d="M48.8786 46.2648C44.9736 44.4652 43.6068 46.1523 43.0328 46.9413C43.7416 46.6386 46.6966 46.5871 47.8572 48.8842" stroke="black" stroke-width="2" stroke-linecap="round" stroke-linejoin="round"/>
<path d="M85.7143 39.9637C85.7143 38.5526 82.8774 38.2341 80.0305 38.4258C82.592 37.1696 84.8894 35.4765 84.1832 34.2545C83.4771 33.0326 80.8609 34.1737 78.4912 35.762C80.0808 33.3945 81.2231 30.7807 80.0001 30.0752C78.777 29.3696 77.0824 31.6649 75.8251 34.2241C76.0169 31.3798 75.698 28.5455 74.2857 28.5455C72.8734 28.5455 72.5545 31.3798 72.7464 34.2241C71.489 31.665 69.7944 29.3698 68.5713 30.0752C67.3482 30.7807 68.4905 33.3945 70.0802 35.762C67.7106 34.1739 65.0944 33.0326 64.3882 34.2545C63.6821 35.4764 65.9794 37.1696 68.5409 38.4258C65.694 38.2341 62.8571 38.5527 62.8571 39.9637C62.8571 41.3746 65.694 41.6932 68.5409 41.5015C65.9794 42.7577 63.6822 44.4508 64.3882 45.6728C65.0944 46.8947 67.7106 45.7536 70.0802 44.1653C68.4906 46.5328 67.3484 49.1466 68.5713 49.8521C69.7943 50.5577 71.489 48.2624 72.7464 45.7032C72.5545 48.5475 72.8735 51.3818 74.2857 51.3818C75.6978 51.3818 76.0168 48.5475 75.8251 45.7032C77.0824 48.2623 78.777 50.5575 80.0001 49.8521C81.2231 49.1466 80.0809 46.5328 78.4912 44.1653C80.8609 45.7535 83.4771 46.8947 84.1832 45.6728C84.8894 44.4509 82.592 42.7577 80.0305 41.5015C82.8774 41.6932 85.7143 41.3746 85.7143 39.9637Z" fill="#DB5A3D"/>
<path fill-rule="evenodd" clip-rule="evenodd" d="M26.9895 52.1579C26.7555 52.1233 26.5388 52.2851 26.5042 52.519L26.4637 52.7928C25.6553 58.2561 29.4291 63.3391 34.8925 64.146C40.356 64.9529 45.4403 61.1782 46.2487 55.7149L46.2892 55.4411C46.3238 55.2072 46.1632 54.9897 45.9292 54.9551C44.4931 54.743 39.7097 54.0365 36.4594 53.5565C33.2091 53.0765 28.4256 52.37 26.9895 52.1579Z" fill="black"/>
<path d="M41.0714 61.0434C40.6635 59.9715 39.0368 59.8524 38.2162 60.1721C37.506 60.537 37.5117 61.0433 37.5117 61.0433C37.5117 61.0433 37.2589 60.5996 36.4346 60.549C35.5105 60.4922 34.3523 61.0128 34.312 62.357C34.541 62.4116 34.7441 62.4564 35.0248 62.4987C37.4484 62.8638 39.655 62.1298 41.0714 61.0434Z" fill="#C0DCDF"/>
<path d="M84.2058 128.08C84.2058 128.08 58.7932 79.7694 54.8382 72.034C50.8835 64.2993 47.8835 66.6137 47.5378 66.7901C47.1922 66.9666 46.8147 71.5131 49.6748 77.1069C49.6748 77.1069 46.2191 70.8593 42.8672 72.6568C39.5152 74.4543 44.7265 82.9417 44.7265 82.9417C44.7265 82.9417 41.1129 74.5106 37.5537 76.4139C33.9945 78.3171 45.712 101.598 49.5419 109.088C53.3719 116.579 66.0625 141.4 66.0625 141.4" fill="#C0DCDF"/>
<path d="M84.2058 128.08C84.2058 128.08 58.7932 79.7694 54.8382 72.034C50.8835 64.2993 47.8835 66.6137 47.5378 66.7901C47.1922 66.9666 46.8147 71.5131 49.6748 77.1069C49.6748 77.1069 46.2191 70.8593 42.8672 72.6568C39.5152 74.4543 44.7265 82.9417 44.7265 82.9417C44.7265 82.9417 41.1129 74.5106 37.5537 76.4139C33.9945 78.3171 45.712 101.598 49.5419 109.088C53.3719 116.579 66.0625 141.4 66.0625 141.4" stroke="black" stroke-width="2" stroke-miterlimit="10" stroke-linecap="round"/>
<path d="M15.7927 113.865C15.7927 113.865 20.6661 83.7871 22.4052 75.2765C24.1441 66.7666 27.6545 68.1946 28.0348 68.2722C28.4151 68.3498 29.9965 72.6296 28.7389 78.784C28.7389 78.784 30.3953 71.8405 34.1065 72.6763C37.8176 73.5121 35.0695 83.0832 35.0695 83.0832C35.0695 83.0832 36.2932 73.9935 40.2324 74.8758C44.1716 75.7582 39.1165 101.322 37.4325 109.564C35.7484 117.805 33.4483 131.129 33.4483 131.129" fill="#C0DCDF"/>
<path d="M15.7927 113.865C15.7927 113.865 20.6661 83.7871 22.4052 75.2765C24.1441 66.7666 27.6545 68.1946 28.0348 68.2722C28.4152 68.3498 29.9965 72.6296 28.7389 78.784C28.7389 78.784 30.3953 71.8405 34.1065 72.6763C37.8176 73.5121 35.0695 83.0832 35.0695 83.0832C35.0695 83.0832 36.2932 73.9935 40.2324 74.8758C44.1716 75.7582 39.1165 101.322 37.4325 109.564C35.7484 117.805 33.4483 131.129 33.4483 131.129" stroke="black" stroke-width="2" stroke-miterlimit="10" stroke-linecap="round"/>
</svg>
