<svg width="100" height="157" viewBox="0 0 100 157" fill="none" xmlns="http://www.w3.org/2000/svg">
<path d="M85.7143 156.829H14.2857L17.0351 60.2299C17.7172 42.533 32.2729 28.5455 50 28.5455C67.727 28.5455 82.2757 42.533 82.9649 60.2299L83.3586 73.9925L84.0196 97.3238L85.7143 156.829Z" fill="#C0DCDF"/>
<path d="M80.7682 124.193C80.7682 124.193 52.7615 74.3972 48.4145 66.8747C44.0678 59.3529 41.1906 61.8181 40.8545 62.012C40.5183 62.2059 40.3749 66.7658 43.5184 72.2056C43.5184 72.2056 39.7465 66.1434 36.4912 68.1104C33.236 70.0773 38.8762 78.2864 38.8762 78.2864C38.8762 78.2864 34.8345 70.0516 31.3777 72.1348C27.9209 74.218 40.8186 96.8673 45.0281 104.152C49.2377 111.436 63.1862 135.574 63.1862 135.574" fill="#C0DCDF"/>
<path d="M80.7682 124.193C80.7682 124.193 52.7615 74.3972 48.4145 66.8747C44.0678 59.3529 41.1906 61.8181 40.8545 62.012C40.5183 62.2059 40.3749 66.7658 43.5184 72.2056C43.5184 72.2056 39.7465 66.1434 36.4912 68.1103C33.236 70.0773 38.8762 78.2864 38.8762 78.2864C38.8762 78.2864 34.8345 70.0516 31.3777 72.1348C27.9209 74.218 40.8186 96.8673 45.0281 104.152C49.2377 111.436 63.1862 135.574 63.1862 135.574" stroke="black" stroke-width="2" stroke-miterlimit="10" stroke-linecap="round"/>
<path d="M85.7143 39.9637C85.7143 38.5526 82.8774 38.2341 80.0305 38.4258C82.592 37.1696 84.8893 35.4765 84.1832 34.2545C83.477 33.0326 80.8608 34.1737 78.4912 35.762C80.0808 33.3945 81.223 30.7807 80.0001 30.0752C78.777 29.3696 77.0824 31.6649 75.825 34.2241C76.0169 31.3798 75.6979 28.5455 74.2856 28.5455C72.8733 28.5455 72.5545 31.3798 72.7463 34.2241C71.489 31.665 69.7944 29.3698 68.5713 30.0752C67.3482 30.7807 68.4905 33.3945 70.0802 35.762C67.7105 34.1739 65.0943 33.0326 64.3882 34.2545C63.682 35.4764 65.9794 37.1696 68.5409 38.4258C65.694 38.2341 62.8571 38.5527 62.8571 39.9637C62.8571 41.3746 65.694 41.6932 68.5409 41.5015C65.9794 42.7577 63.6822 44.4508 64.3882 45.6728C65.0943 46.8947 67.7105 45.7536 70.0802 44.1653C68.4906 46.5328 67.3483 49.1466 68.5713 49.8521C69.7943 50.5577 71.489 48.2624 72.7463 45.7032C72.5545 48.5475 72.8734 51.3818 74.2856 51.3818C75.6978 51.3818 76.0168 48.5475 75.825 45.7032C77.0824 48.2623 78.777 50.5575 80.0001 49.8521C81.223 49.1466 80.0809 46.5328 78.4912 44.1653C80.8608 45.7535 83.477 46.8947 84.1832 45.6728C84.8893 44.4509 82.592 42.7577 80.0305 41.5015C82.8774 41.6932 85.7143 41.3746 85.7143 39.9637Z" fill="#DB5A3D"/>
<path d="M51.4479 58.014C51.4479 58.014 48.2143 52.9681 40.3441 54.2565C33.9286 55.3068 32.1429 59.9454 32.1429 59.9454" stroke="black" stroke-width="2" stroke-miterlimit="10" stroke-linecap="round"/>
<path d="M33.9946 40.8121C33.033 41.5058 32.1043 43.2053 32.0097 44.6735" stroke="black" stroke-width="2" stroke-linecap="round"/>
<path d="M46.5211 43.9407C45.5595 44.6344 44.6308 46.334 44.5361 47.8021" stroke="black" stroke-width="2" stroke-linecap="round"/>
<path d="M48.92 44.5471C47.7885 45.1235 46.8334 44.5213 46.8334 44.5213" stroke="black" stroke-width="2" stroke-linecap="round"/>
<path d="M31.5527 39.9636C32.3015 40.9886 33.5715 41.0341 33.5715 41.0341" stroke="black" stroke-width="2" stroke-linecap="round"/>
</svg>
