<svg width="100" height="157" viewBox="0 0 100 157" fill="none" xmlns="http://www.w3.org/2000/svg">
<path d="M86.3811 156.767H14.1923L16.9709 59.1398C17.6603 41.2545 32.3709 27.1182 50.2867 27.1182C68.2024 27.1182 82.906 41.2545 83.6024 59.1398L84.0004 73.049L84.6684 96.6285L86.3811 156.767Z" fill="#F99F4F"/>
<path d="M62.4149 54.561C62.4149 54.561 58.4683 50.0497 50.8762 52.4896C44.6875 54.4785 43.6098 59.3304 43.6098 59.3304" stroke="black" stroke-width="2" stroke-miterlimit="10" stroke-linecap="round"/>
<path d="M44.3835 37.789C43.4992 38.5786 42.7519 40.3652 42.8102 41.8353" stroke="black" stroke-width="2" stroke-linecap="round"/>
<path d="M57.1673 39.6027C56.2829 40.3923 55.5357 42.1789 55.594 43.6489" stroke="black" stroke-width="2" stroke-linecap="round"/>
<path d="M16.3719 71.3165C16.3719 71.3165 7.25696 129.104 5.97351 137.907C4.69006 146.709 8.56955 146.552 8.96254 146.609C9.35554 146.665 12.3673 143.091 13.2954 136.724C13.2954 136.724 12.4775 143.989 16.3435 144.472C20.2094 144.955 20.8895 134.78 20.8895 134.78C20.8895 134.78 18.9082 143.962 23.0102 144.479C27.1121 144.996 31.1302 118.611 32.3731 110.087L33.0504 105.443" fill="#F99F4F"/>
<path d="M16.3719 71.3165C16.3719 71.3165 7.25696 129.104 5.97351 137.907C4.69006 146.709 8.56955 146.552 8.96254 146.609C9.35554 146.665 12.3673 143.091 13.2954 136.724C13.2954 136.724 12.4775 143.989 16.3435 144.472C20.2094 144.955 20.8895 134.78 20.8895 134.78C20.8895 134.78 18.9082 143.962 23.0102 144.479C27.1121 144.996 31.1302 118.611 32.3731 110.087L33.0504 105.443" stroke="black" stroke-width="2" stroke-miterlimit="10" stroke-linecap="round" stroke-linejoin="round"/>
<path d="M73.2331 134.567C73.2331 134.567 55.9208 78.6818 53.3875 70.1538C50.8543 61.6258 54.7163 61.2261 55.0971 61.1136C55.4779 61.0011 58.9714 64.1071 60.8035 70.2751C60.8035 70.2751 58.9516 63.2024 62.7084 62.1709C66.4651 61.1394 68.5982 71.1121 68.5982 71.1121C68.5982 71.1121 65.3198 62.3081 69.3052 61.209C73.2906 60.11 81.0529 85.6468 83.5062 93.9052L84.8427 98.4037" fill="#F99F4F"/>
<path d="M73.2331 134.567C73.2331 134.567 55.9208 78.6818 53.3875 70.1538C50.8543 61.6258 54.7163 61.2261 55.0971 61.1136C55.4779 61.0011 58.9714 64.1071 60.8035 70.2751C60.8035 70.2751 58.9516 63.2024 62.7084 62.1709C66.4651 61.1394 68.5982 71.1121 68.5982 71.1121C68.5982 71.1121 65.3198 62.3081 69.3052 61.209C73.2906 60.11 81.0529 85.6468 83.5062 93.9052L84.8427 98.4037" stroke="black" stroke-width="2" stroke-miterlimit="10" stroke-linecap="round" stroke-linejoin="round"/>
</svg>
