<svg width="100" height="157" viewBox="0 0 100 157" fill="none" xmlns="http://www.w3.org/2000/svg">
<path d="M85.7143 156.829H14.2857L17.0351 60.2299C17.7172 42.533 32.2729 28.5455 50 28.5455C67.727 28.5455 82.2757 42.533 82.9649 60.2299L83.3586 73.9925L84.0196 97.3238L85.7143 156.829Z" fill="#C0DCDF"/>
<path d="M33.9945 40.8121C33.0329 41.5058 32.1042 43.2054 32.0096 44.6735" stroke="black" stroke-width="2" stroke-linecap="round"/>
<path d="M31.5525 39.9636C32.3013 40.9886 33.5713 41.0341 33.5713 41.0341" stroke="black" stroke-width="2" stroke-linecap="round"/>
<path d="M46.521 43.9407C45.5594 44.6344 44.6308 46.334 44.5361 47.8021" stroke="black" stroke-width="2" stroke-linecap="round"/>
<path d="M48.92 44.5471C47.7884 45.1235 46.8333 44.5213 46.8333 44.5213" stroke="black" stroke-width="2" stroke-linecap="round"/>
<path d="M58.0842 77.2593C58.0842 77.2593 57.4182 134.374 57.4182 143.06C57.4182 151.746 61.1437 151.048 61.5318 151.048C61.92 151.048 64.3262 147.171 64.3262 140.889C64.3262 140.889 64.559 148.024 68.3625 147.946C72.1659 147.869 71.3896 137.942 71.3896 137.942C71.3896 137.942 70.7687 147.093 74.805 147.016C78.8412 146.938 79.0064 120.881 79.0064 112.469C79.0064 104.058 79.0064 76.1859 79.0064 76.1859" fill="#C0DCDF"/>
<path d="M58.0842 77.2593C58.0842 77.2593 57.4182 134.374 57.4182 143.06C57.4182 151.746 61.1437 151.048 61.5318 151.048C61.92 151.048 64.3262 147.171 64.3262 140.889C64.3262 140.889 64.559 148.024 68.3625 147.946C72.1659 147.869 71.3896 137.942 71.3896 137.942C71.3896 137.942 70.7687 147.093 74.805 147.016C78.8412 146.938 79.0064 120.881 79.0064 112.469C79.0064 104.058 79.0064 76.1859 79.0064 76.1859" stroke="black" stroke-width="2" stroke-miterlimit="10" stroke-linecap="round"/>
<path d="M85.7143 39.9637C85.7143 38.5526 82.8774 38.2341 80.0305 38.4258C82.592 37.1696 84.8894 35.4765 84.1832 34.2545C83.4771 33.0326 80.8609 34.1737 78.4912 35.762C80.0808 33.3945 81.2231 30.7807 80.0001 30.0752C78.777 29.3696 77.0824 31.6649 75.8251 34.2241C76.0169 31.3798 75.698 28.5455 74.2857 28.5455C72.8734 28.5455 72.5545 31.3798 72.7464 34.2241C71.489 31.665 69.7944 29.3698 68.5713 30.0752C67.3482 30.7807 68.4905 33.3945 70.0802 35.762C67.7106 34.1739 65.0944 33.0326 64.3882 34.2545C63.6821 35.4764 65.9794 37.1696 68.5409 38.4258C65.694 38.2341 62.8571 38.5527 62.8571 39.9637C62.8571 41.3746 65.694 41.6932 68.5409 41.5015C65.9794 42.7577 63.6822 44.4508 64.3882 45.6728C65.0944 46.8947 67.7106 45.7536 70.0802 44.1653C68.4906 46.5328 67.3484 49.1466 68.5713 49.8521C69.7943 50.5577 71.489 48.2624 72.7464 45.7032C72.5545 48.5475 72.8735 51.3818 74.2857 51.3818C75.6978 51.3818 76.0168 48.5475 75.8251 45.7032C77.0824 48.2623 78.777 50.5575 80.0001 49.8521C81.2231 49.1466 80.0809 46.5328 78.4912 44.1653C80.8609 45.7535 83.4771 46.8947 84.1832 45.6728C84.8894 44.4509 82.592 42.7577 80.0305 41.5015C82.8774 41.6932 85.7143 41.3746 85.7143 39.9637Z" fill="#DB5A3D"/>
<path fill-rule="evenodd" clip-rule="evenodd" d="M26.9895 52.1579C26.7555 52.1233 26.5388 52.2851 26.5042 52.519L26.4637 52.7928C25.6553 58.2561 29.4291 63.3391 34.8925 64.146C40.356 64.9529 45.4403 61.1782 46.2487 55.7149L46.2892 55.4411C46.3238 55.2072 46.1632 54.9897 45.9292 54.9551C44.4931 54.743 39.7097 54.0365 36.4594 53.5565C33.2091 53.0765 28.4256 52.37 26.9895 52.1579Z" fill="black"/>
<path d="M41.0714 61.0434C40.6635 59.9715 39.0368 59.8524 38.2162 60.1721C37.506 60.537 37.5117 61.0433 37.5117 61.0433C37.5117 61.0433 37.2589 60.5996 36.4346 60.549C35.5105 60.4922 34.3523 61.0128 34.312 62.357C34.541 62.4116 34.7441 62.4564 35.0248 62.4987C37.4484 62.8638 39.655 62.1298 41.0714 61.0434Z" fill="#C0DCDF"/>
</svg>
