<svg width="32" height="32" viewBox="0 0 32 32" fill="none" xmlns="http://www.w3.org/2000/svg">
<path d="M27 24C27 27.3137 24.3137 30 21 30H11C7.68629 30 5 27.3137 5 24V12C5 8.68629 7.68629 6 11 6H21C24.3137 6 27 8.68629 27 12V24Z" fill="#80B6BC" fill-opacity="0.5"/>
<path d="M11 5C11 3.34315 12.3431 2 14 2H18C19.6569 2 21 3.34315 21 5V6H11V5Z" fill="#80B6BC" fill-opacity="0.5"/>
<path d="M10.5 15.5097C10.5 17.5815 12.7107 19.7728 14.329 21.0992C15.0615 21.6997 15.4278 22 16 22C16.5722 22 16.9385 21.6998 17.6711 21.0993C19.2893 19.7728 21.5 17.5816 21.5 15.5097C21.5 12.0486 18.4749 10.7564 16 13.4301C13.5251 10.7564 10.5 12.0486 10.5 15.5097Z" fill="#80B6BC"/>
</svg>
