<svg width="100" height="157" viewBox="0 0 100 157" fill="none" xmlns="http://www.w3.org/2000/svg">
<path d="M85.7143 156.829H14.2857L17.0351 60.2299C17.7172 42.533 32.2729 28.5455 50 28.5455C67.7271 28.5455 82.2758 42.533 82.9649 60.2299L83.3586 73.9925L84.0196 97.3238L85.7143 156.829Z" fill="#C0DCDF"/>
<path d="M49.2019 48.1552C49.2019 48.1552 48.0459 52.2791 44.7114 51.6525C41.377 51.0258 42.0035 47.1 42.0035 47.1" stroke="black" stroke-width="2" stroke-miterlimit="10" stroke-linecap="round"/>
<path d="M51.0628 48.829C49.9313 49.4054 48.9762 48.8032 48.9762 48.8032" stroke="black" stroke-width="2" stroke-linecap="round"/>
<path d="M50.4068 51.1561C49.1425 51.2776 48.4751 50.3673 48.4751 50.3673" stroke="black" stroke-width="2" stroke-linecap="round"/>
<path d="M36.028 46.515C36.028 46.515 34.7405 50.8694 31.7682 50.6059C28.7966 50.3417 29.7213 46.1195 29.7213 46.1195" stroke="black" stroke-width="2" stroke-miterlimit="10" stroke-linecap="round"/>
<path d="M27.1429 46.3864C28.1038 47.2162 29.1753 46.8594 29.1753 46.8594" stroke="black" stroke-width="2" stroke-linecap="round"/>
<path d="M27.2233 48.8026C28.422 49.2224 29.2877 48.4978 29.2877 48.4978" stroke="black" stroke-width="2" stroke-linecap="round"/>
<path d="M53.9237 54.9939C53.9237 54.9939 48.6408 58.9196 38.5038 57.9958C28.3668 57.072 24.8664 53.3113 24.8664 53.3113" stroke="black" stroke-width="2" stroke-miterlimit="10" stroke-linecap="round"/>
<path d="M58.0842 77.2593C58.0842 77.2593 57.4183 134.374 57.4183 143.06C57.4183 151.746 61.1437 151.048 61.5318 151.048C61.92 151.048 64.3263 147.171 64.3263 140.889C64.3263 140.889 64.559 148.024 68.3625 147.946C72.166 147.869 71.3897 137.942 71.3897 137.942C71.3897 137.942 70.7688 147.093 74.805 147.016C78.8412 146.938 79.0065 120.881 79.0065 112.469C79.0065 104.058 79.0065 76.1859 79.0065 76.1859" fill="#C0DCDF"/>
<path d="M58.0842 77.2593C58.0842 77.2593 57.4183 134.374 57.4183 143.06C57.4183 151.746 61.1437 151.048 61.5318 151.048C61.92 151.048 64.3263 147.171 64.3263 140.889C64.3263 140.889 64.559 148.024 68.3625 147.946C72.166 147.869 71.3897 137.942 71.3897 137.942C71.3897 137.942 70.7688 147.093 74.805 147.016C78.8412 146.938 79.0065 120.881 79.0065 112.469C79.0065 104.058 79.0065 76.1859 79.0065 76.1859" stroke="black" stroke-width="2" stroke-miterlimit="10" stroke-linecap="round"/>
<path d="M85.7143 39.9637C85.7143 38.5526 82.8774 38.2341 80.0305 38.4258C82.592 37.1696 84.8894 35.4765 84.1832 34.2545C83.4771 33.0326 80.8609 34.1737 78.4912 35.762C80.0808 33.3945 81.2231 30.7807 80.0001 30.0752C78.777 29.3696 77.0824 31.6649 75.8251 34.2241C76.0169 31.3798 75.698 28.5455 74.2857 28.5455C72.8734 28.5455 72.5545 31.3798 72.7464 34.2241C71.489 31.665 69.7944 29.3698 68.5713 30.0752C67.3482 30.7807 68.4905 33.3945 70.0802 35.762C67.7106 34.1739 65.0944 33.0326 64.3882 34.2545C63.6821 35.4764 65.9794 37.1696 68.5409 38.4258C65.694 38.2341 62.8571 38.5527 62.8571 39.9637C62.8571 41.3746 65.694 41.6932 68.5409 41.5015C65.9794 42.7577 63.6822 44.4508 64.3882 45.6728C65.0944 46.8947 67.7106 45.7536 70.0802 44.1653C68.4906 46.5328 67.3484 49.1466 68.5713 49.8521C69.7943 50.5577 71.489 48.2624 72.7464 45.7032C72.5545 48.5475 72.8735 51.3818 74.2857 51.3818C75.6978 51.3818 76.0168 48.5475 75.8251 45.7032C77.0824 48.2623 78.777 50.5575 80.0001 49.8521C81.2231 49.1466 80.0809 46.5328 78.4912 44.1653C80.8609 45.7535 83.4771 46.8947 84.1832 45.6728C84.8894 44.4509 82.592 42.7577 80.0305 41.5015C82.8774 41.6932 85.7143 41.3746 85.7143 39.9637Z" fill="#DB5A3D"/>
</svg>
