<svg width="32" height="32" viewBox="0 0 32 32" fill="none" xmlns="http://www.w3.org/2000/svg">
<path opacity="0.5" fill-rule="evenodd" clip-rule="evenodd" d="M19.0384 2.86961C18.5446 2.66663 17.9186 2.66663 16.6667 2.66663C15.4147 2.66663 14.7887 2.66663 14.2949 2.86961C13.6365 3.14026 13.1135 3.6594 12.8407 4.3128C12.7163 4.61108 12.6675 4.95796 12.6485 5.46395C12.6205 6.20753 12.2362 6.89582 11.5869 7.26787C10.9376 7.63991 10.1449 7.62601 9.48198 7.2783C9.03091 7.04169 8.70385 6.91012 8.38132 6.86798C7.67479 6.77567 6.96024 6.96568 6.39487 7.39622C5.97085 7.71913 5.65786 8.25716 5.03187 9.3332C4.40589 10.4092 4.09289 10.9473 4.02313 11.4732C3.93011 12.1744 4.12157 12.8835 4.5554 13.4446C4.75341 13.7007 5.0317 13.916 5.46361 14.1853C6.09855 14.5813 6.5071 15.2558 6.50705 16C6.50701 16.7441 6.09849 17.4185 5.4636 17.8144C5.03162 18.0838 4.7533 18.2991 4.55526 18.5552C4.12144 19.1163 3.92998 19.8255 4.023 20.5267C4.09276 21.0526 4.40575 21.5906 5.03174 22.6666C5.65772 23.7427 5.97072 24.2807 6.39474 24.6036C6.96011 25.0341 7.67466 25.2242 8.38119 25.1318C8.7037 25.0897 9.03074 24.9581 9.48177 24.7216C10.1447 24.3738 10.9375 24.3599 11.5868 24.732C12.2362 25.1041 12.6204 25.7924 12.6485 26.536C12.6675 27.042 12.7163 27.3889 12.8407 27.6871C13.1135 28.3405 13.6365 28.8597 14.2949 29.1303C14.7887 29.3333 15.4147 29.3333 16.6667 29.3333C17.9186 29.3333 18.5446 29.3333 19.0384 29.1303C19.6968 28.8597 20.2199 28.3405 20.4926 27.6871C20.6171 27.3888 20.6658 27.0419 20.6849 26.5359C20.7129 25.7924 21.0971 25.1041 21.7464 24.732C22.3957 24.3599 23.1885 24.3738 23.8515 24.7215C24.3025 24.9581 24.6295 25.0896 24.952 25.1318C25.6585 25.2241 26.3731 25.0341 26.9385 24.6035C27.3625 24.2806 27.6755 23.7426 28.3015 22.6665C28.9275 21.5905 29.2404 21.0525 29.3102 20.5266C29.4032 19.8254 29.2118 19.1162 28.7779 18.5551C28.5799 18.299 28.3016 18.0837 27.8697 17.8144C27.2347 17.4185 26.8262 16.744 26.8263 15.9998C26.8263 15.2558 27.2348 14.5814 27.8697 14.1855C28.3017 13.9162 28.58 13.7008 28.7781 13.4447C29.2119 12.8836 29.4034 12.1745 29.3103 11.4733C29.2406 10.9474 28.9276 10.4093 28.3016 9.33329C27.6756 8.25725 27.3626 7.71922 26.9386 7.39632C26.3732 6.96577 25.6587 6.77576 24.9521 6.86807C24.6296 6.91021 24.3026 7.04177 23.8516 7.27835C23.1886 7.62608 22.3959 7.63998 21.7465 7.26791C21.0971 6.89583 20.7129 6.20751 20.6849 5.46388C20.6658 4.95793 20.6171 4.61107 20.4926 4.3128C20.2199 3.6594 19.6968 3.14026 19.0384 2.86961Z" fill="#80B6BC"/>
<path d="M20.6969 16C20.6969 18.2091 18.8924 20 16.6664 20C14.4405 20 12.636 18.2091 12.636 16C12.636 13.7909 14.4405 12 16.6664 12C18.8924 12 20.6969 13.7909 20.6969 16Z" fill="#80B6BC"/>
</svg>
