<svg width="32" height="32" viewBox="0 0 32 32" fill="none" xmlns="http://www.w3.org/2000/svg">
<path opacity="0.5" d="M3.66675 8.66675C3.66675 6.30973 3.66675 5.13121 4.39898 4.39898C5.13121 3.66675 6.30973 3.66675 8.66675 3.66675C11.0238 3.66675 12.2023 3.66675 12.9345 4.39898C13.6667 5.13121 13.6667 6.30973 13.6667 8.66675C13.6667 11.0238 13.6667 12.2023 12.9345 12.9345C12.2023 13.6667 11.0238 13.6667 8.66675 13.6667C6.30973 13.6667 5.13121 13.6667 4.39898 12.9345C3.66675 12.2023 3.66675 11.0238 3.66675 8.66675Z" fill="#F6B1A2" stroke="#DB5A3D" stroke-width="2"/>
<path opacity="0.5" d="M17.6667 22.6667C17.6667 20.3097 17.6667 19.1312 18.399 18.399C19.1312 17.6667 20.3097 17.6667 22.6667 17.6667C25.0238 17.6667 26.2023 17.6667 26.9345 18.399C27.6667 19.1312 27.6667 20.3097 27.6667 22.6667C27.6667 25.0238 27.6667 26.2023 26.9345 26.9345C26.2023 27.6667 25.0238 27.6667 22.6667 27.6667C20.3097 27.6667 19.1312 27.6667 18.399 26.9345C17.6667 26.2023 17.6667 25.0238 17.6667 22.6667Z" fill="#F6B1A2" stroke="#DB5A3D" stroke-width="2"/>
<path d="M3.66675 22.6667C3.66675 20.3097 3.66675 19.1312 4.39898 18.399C5.13121 17.6667 6.30973 17.6667 8.66675 17.6667C11.0238 17.6667 12.2023 17.6667 12.9345 18.399C13.6667 19.1312 13.6667 20.3097 13.6667 22.6667C13.6667 25.0238 13.6667 26.2023 12.9345 26.9345C12.2023 27.6667 11.0238 27.6667 8.66675 27.6667C6.30973 27.6667 5.13121 27.6667 4.39898 26.9345C3.66675 26.2023 3.66675 25.0238 3.66675 22.6667Z" fill="#F6B1A2" stroke="#DB5A3D" stroke-width="2"/>
<path d="M17.6667 8.66675C17.6667 6.30973 17.6667 5.13121 18.399 4.39898C19.1312 3.66675 20.3097 3.66675 22.6667 3.66675C25.0238 3.66675 26.2023 3.66675 26.9345 4.39898C27.6667 5.13121 27.6667 6.30973 27.6667 8.66675C27.6667 11.0238 27.6667 12.2023 26.9345 12.9345C26.2023 13.6667 25.0238 13.6667 22.6667 13.6667C20.3097 13.6667 19.1312 13.6667 18.399 12.9345C17.6667 12.2023 17.6667 11.0238 17.6667 8.66675Z" fill="#F6B1A2" stroke="#DB5A3D" stroke-width="2"/>
</svg>
