<svg width="100" height="157" viewBox="0 0 100 157" fill="none" xmlns="http://www.w3.org/2000/svg">
<path d="M86.3811 156.767H14.1923L16.9709 59.1398C17.6603 41.2545 32.3709 27.1182 50.2867 27.1182C68.2024 27.1182 82.906 41.2545 83.6024 59.1398L84.0004 73.049L84.6684 96.6285L86.3811 156.767Z" fill="#F99F4F"/>
<path d="M39.4133 43.1442C43.6915 42.7066 44.4377 44.7449 44.725 45.6771C44.1526 45.1612 41.783 44.1527 39.9402 45.9494" stroke="black" stroke-width="2" stroke-linecap="round" stroke-linejoin="round"/>
<path d="M60.9322 43.8619C56.7623 42.8111 55.7305 44.7213 55.312 45.6027C55.9527 45.1746 58.8473 44.5803 60.4118 46.6251" stroke="black" stroke-width="2" stroke-linecap="round" stroke-linejoin="round"/>
<path d="M68.2332 139.562C68.2332 139.562 50.9209 83.6773 48.3876 75.1492C45.8544 66.6212 49.7164 66.2216 50.0972 66.1091C50.478 65.9966 53.9715 69.1025 55.8035 75.2706C55.8035 75.2706 53.9516 68.1979 57.7084 67.1664C61.4652 66.1348 63.5982 76.1075 63.5982 76.1075C63.5982 76.1075 60.3198 67.3035 64.3052 66.2045C68.2906 65.1055 76.053 90.6423 78.5062 98.9007L79.8427 103.399" fill="#F99F4F"/>
<path d="M68.2332 139.562C68.2332 139.562 50.9209 83.6773 48.3876 75.1492C45.8544 66.6212 49.7164 66.2216 50.0972 66.1091C50.478 65.9966 53.9715 69.1025 55.8035 75.2706C55.8035 75.2706 53.9516 68.1979 57.7084 67.1664C61.4652 66.1348 63.5982 76.1075 63.5982 76.1075C63.5982 76.1075 60.3198 67.3035 64.3052 66.2045C68.2906 65.1055 76.053 90.6423 78.5062 98.9007L79.8427 103.399" stroke="black" stroke-width="2" stroke-miterlimit="10" stroke-linecap="round" stroke-linejoin="round"/>
<path d="M31.2457 139.562C31.2457 139.562 48.5581 83.6773 51.0913 75.1492C53.6245 66.6212 49.7625 66.2216 49.3817 66.1091C49.0009 65.9966 45.5074 69.1025 43.6754 75.2706C43.6754 75.2706 45.5273 68.1979 41.7705 67.1664C38.0137 66.1348 35.8807 76.1075 35.8807 76.1075C35.8807 76.1075 39.1591 67.3035 35.1737 66.2045C31.1883 65.1055 23.4259 90.6423 20.9727 98.9007L19.6362 103.399" fill="#F99F4F"/>
<path d="M31.2457 139.562C31.2457 139.562 48.5581 83.6773 51.0913 75.1492C53.6245 66.6212 49.7625 66.2216 49.3817 66.1091C49.0009 65.9966 45.5074 69.1025 43.6754 75.2706C43.6754 75.2706 45.5273 68.1979 41.7705 67.1664C38.0137 66.1348 35.8807 76.1075 35.8807 76.1075C35.8807 76.1075 39.1591 67.3035 35.1737 66.2045C31.1883 65.1055 23.4259 90.6423 20.9727 98.9007L19.6362 103.399" stroke="black" stroke-width="2" stroke-miterlimit="10" stroke-linecap="round" stroke-linejoin="round"/>
<path d="M45.9788 52.9731C45.9788 52.9731 48.0895 54.5003 51.4374 54.4272C54.7853 54.3541 56.3864 52.9731 56.3864 52.9731" stroke="black" stroke-width="2" stroke-miterlimit="10" stroke-linecap="round"/>
<path fill-rule="evenodd" clip-rule="evenodd" d="M40.5496 51.3144C40.3132 51.3133 40.1216 51.5041 40.1205 51.7406L40.1192 52.0169C40.0939 57.5397 44.5505 62.0373 50.0733 62.0626C55.5961 62.0879 60.0937 57.6312 60.119 52.1084L60.1203 51.8321C60.1213 51.5956 59.9315 51.403 59.695 51.402C58.2433 51.3953 53.4079 51.3732 50.1223 51.3582C46.8367 51.3431 42.0013 51.321 40.5496 51.3144Z" fill="black"/>
<path d="M55.7498 58.1166C55.1939 57.1132 53.5667 57.2256 52.7998 57.6583C52.1484 58.12 52.2259 58.6204 52.2259 58.6204C52.2259 58.6204 51.9128 58.217 51.0896 58.2836C50.1668 58.3582 49.0941 59.0375 49.2448 60.3738C49.4793 60.3955 49.6867 60.4111 49.9706 60.4132C52.4215 60.4315 54.5017 59.3926 55.7498 58.1166Z" fill="#F99F4F"/>
</svg>
