<svg width="100" height="157" viewBox="0 0 100 157" fill="none" xmlns="http://www.w3.org/2000/svg">
<path d="M86.3811 156.767H14.1923L16.971 59.1398C17.6603 41.2545 32.371 27.1182 50.2867 27.1182C68.2024 27.1182 82.906 41.2545 83.6024 59.1398L84.0004 73.049L84.6684 96.6285L86.3811 156.767Z" fill="#F99F4F"/>
<path d="M16.3719 71.3165C16.3719 71.3165 7.25695 129.104 5.9735 137.907C4.69005 146.709 8.56954 146.552 8.96254 146.609C9.35553 146.665 12.3673 143.091 13.2954 136.724C13.2954 136.724 12.4775 143.989 16.3434 144.472C20.2094 144.955 20.8895 134.78 20.8895 134.78C20.8895 134.78 18.9082 143.962 23.0101 144.479C27.1121 144.996 31.1301 118.611 32.3731 110.087L33.0503 105.443" fill="#F99F4F"/>
<path d="M16.3719 71.3165C16.3719 71.3165 7.25695 129.104 5.9735 137.907C4.69005 146.709 8.56954 146.552 8.96254 146.609C9.35553 146.665 12.3673 143.091 13.2954 136.724C13.2954 136.724 12.4775 143.989 16.3434 144.472C20.2094 144.955 20.8895 134.78 20.8895 134.78C20.8895 134.78 18.9082 143.962 23.0101 144.479C27.1121 144.996 31.1301 118.611 32.3731 110.087L33.0503 105.443" stroke="black" stroke-width="2" stroke-miterlimit="10" stroke-linecap="round" stroke-linejoin="round"/>
<path d="M84.3423 71.3165C84.3423 71.3165 93.4573 129.104 94.7407 137.907C96.0242 146.709 92.1447 146.552 91.7517 146.609C91.3587 146.665 88.3469 143.091 87.4188 136.724C87.4188 136.724 88.2368 143.989 84.3708 144.472C80.5048 144.955 79.8247 134.78 79.8247 134.78C79.8247 134.78 81.806 143.962 77.7041 144.479C73.6021 144.996 69.5841 118.611 68.3411 110.087L67.6639 105.443" fill="#F99F4F"/>
<path d="M84.3423 71.3165C84.3423 71.3165 93.4573 129.104 94.7407 137.907C96.0242 146.709 92.1447 146.552 91.7517 146.609C91.3587 146.665 88.3469 143.091 87.4188 136.724C87.4188 136.724 88.2368 143.989 84.3708 144.472C80.5048 144.955 79.8247 134.78 79.8247 134.78C79.8247 134.78 81.806 143.962 77.7041 144.479C73.6021 144.996 69.5841 118.611 68.3411 110.087L67.6639 105.443" stroke="black" stroke-width="2" stroke-miterlimit="10" stroke-linecap="round" stroke-linejoin="round"/>
<path d="M53.9366 48.8908C53.9366 48.8908 56.1198 50.9271 59.6134 50.7084C63.107 50.4897 64.4899 48.5273 64.4899 48.5273" stroke="black" stroke-width="2" stroke-miterlimit="10" stroke-linecap="round"/>
<path d="M46.6374 48.8908C46.6374 48.8908 44.4543 50.9271 40.9607 50.7084C37.4671 50.4897 36.0841 48.5273 36.0841 48.5273" stroke="black" stroke-width="2" stroke-miterlimit="10" stroke-linecap="round"/>
<path d="M45.1283 54.4004C45.1283 54.4004 47.2389 55.9276 50.5868 55.8545C53.9348 55.7813 55.5359 54.4004 55.5359 54.4004" stroke="black" stroke-width="2" stroke-miterlimit="10" stroke-linecap="round"/>
</svg>
