<svg width="100" height="157" viewBox="0 0 100 157" fill="none" xmlns="http://www.w3.org/2000/svg">
<path d="M86.3811 156.767H14.1923L16.9709 59.1398C17.6603 41.2545 32.3709 27.1182 50.2867 27.1182C68.2024 27.1182 82.906 41.2545 83.6024 59.1398L84.0004 73.049L84.6684 96.6285L86.3811 156.767Z" fill="#F99F4F"/>
<path d="M58.5439 58.5182L40.7143 58.5182" stroke="black" stroke-width="2" stroke-miterlimit="10" stroke-linecap="round"/>
<path d="M43.2143 48.8218C42.9276 50.2491 42.9376 50.9626 42.9276 52.3867" stroke="black" stroke-width="2" stroke-linecap="round"/>
<path d="M40.8824 48.5273H45.5988" stroke="black" stroke-width="2" stroke-linecap="round"/>
<path d="M55.3571 48.8218C55.0704 50.2491 55.0804 50.9626 55.0704 52.3867" stroke="black" stroke-width="2" stroke-linecap="round"/>
<path d="M53.0253 48.5273H57.7416" stroke="black" stroke-width="2" stroke-linecap="round"/>
<path d="M84.3424 71.3636C84.3424 71.3636 93.4573 129.151 94.7407 137.954C96.0242 146.756 92.1447 146.599 91.7517 146.656C91.3587 146.712 88.3469 143.138 87.4188 136.772C87.4188 136.772 88.2368 144.036 84.3708 144.519C80.5048 145.002 79.8247 134.827 79.8247 134.827C79.8247 134.827 81.806 144.009 77.7041 144.526C73.6022 145.043 69.5841 118.658 68.3411 110.134L67.6639 105.49" fill="#F99F4F"/>
<path d="M84.3424 71.3636C84.3424 71.3636 93.4573 129.151 94.7407 137.954C96.0242 146.756 92.1447 146.599 91.7517 146.656C91.3587 146.712 88.3469 143.138 87.4188 136.772C87.4188 136.772 88.2368 144.036 84.3708 144.519C80.5048 145.002 79.8247 134.827 79.8247 134.827C79.8247 134.827 81.806 144.009 77.7041 144.526C73.6022 145.043 69.5841 118.658 68.3411 110.134L67.6639 105.49" stroke="black" stroke-width="2" stroke-miterlimit="10" stroke-linecap="round" stroke-linejoin="round"/>
<path d="M16.3719 71.3636C16.3719 71.3636 7.25696 129.151 5.97351 137.954C4.69006 146.756 8.56955 146.599 8.96254 146.656C9.35554 146.712 12.3673 143.138 13.2954 136.772C13.2954 136.772 12.4775 144.036 16.3435 144.519C20.2094 145.002 20.8895 134.827 20.8895 134.827C20.8895 134.827 18.9082 144.009 23.0102 144.526C27.1121 145.043 31.1302 118.658 32.3731 110.134L33.0504 105.49" fill="#F99F4F"/>
<path d="M16.3719 71.3636C16.3719 71.3636 7.25696 129.151 5.97351 137.954C4.69006 146.756 8.56955 146.599 8.96254 146.656C9.35554 146.712 12.3673 143.138 13.2954 136.772C13.2954 136.772 12.4775 144.036 16.3435 144.519C20.2094 145.002 20.8895 134.827 20.8895 134.827C20.8895 134.827 18.9082 144.009 23.0102 144.526C27.1121 145.043 31.1302 118.658 32.3731 110.134L33.0504 105.49" stroke="black" stroke-width="2" stroke-miterlimit="10" stroke-linecap="round" stroke-linejoin="round"/>
</svg>
