<svg width="100" height="157" viewBox="0 0 100 157" fill="none" xmlns="http://www.w3.org/2000/svg">
<path d="M85.7143 156.829H14.2857L17.0351 60.2299C17.7172 42.533 32.2729 28.5455 50 28.5455C67.727 28.5455 82.2757 42.533 82.9649 60.2299L83.3586 73.9925L84.0196 97.3238L85.7143 156.829Z" fill="#C0DCDF"/>
<path d="M80.9055 74.8392C80.9055 74.8392 40.9883 83.4177 32.5171 85.3716C24.0465 87.3253 25.5648 90.795 25.6521 91.1729C25.7395 91.5507 30.0621 93.0211 36.1881 91.6081C36.1881 91.6081 29.2827 93.4395 30.2136 97.1247C31.1445 100.81 40.6511 97.8213 40.6511 97.8213C40.6511 97.8213 31.5873 99.2752 32.5706 103.187C33.5539 107.099 59.0041 101.398 67.2075 99.5062C75.4108 97.6142 83.8015 95.6789 83.8015 95.6789" fill="#C0DCDF"/>
<path d="M80.9055 74.8392C80.9055 74.8392 40.9883 83.4177 32.5171 85.3716C24.0465 87.3253 25.5648 90.795 25.6521 91.1729C25.7395 91.5507 30.0621 93.0211 36.1881 91.6081C36.1881 91.6081 29.2827 93.4395 30.2136 97.1247C31.1445 100.81 40.6511 97.8213 40.6511 97.8213C40.6511 97.8213 31.5873 99.2752 32.5706 103.187C33.5539 107.099 59.0041 101.398 67.2075 99.5062C75.4108 97.6142 83.8015 95.6789 83.8015 95.6789" stroke="black" stroke-width="2" stroke-miterlimit="10" stroke-linecap="round"/>
<path d="M19.8546 77.2233C19.8546 77.2233 63.6267 83.6111 72.169 85.2272C80.7105 86.8431 79.3313 90.3704 79.2591 90.7514C79.1869 91.1325 74.9262 92.7732 68.7488 91.6045C68.7488 91.6045 75.7216 93.1603 74.938 96.8796C74.1543 100.599 64.5364 97.9899 64.5364 97.9899C64.5364 97.9899 73.6508 99.0829 72.8239 103.031C71.9969 106.978 46.3401 102.293 38.068 100.728C29.7959 99.1626 16.4286 97.0545 16.4286 97.0545" fill="#C0DCDF"/>
<path d="M19.8546 77.2233C19.8546 77.2233 63.6267 83.6111 72.169 85.2272C80.7105 86.8431 79.3313 90.3704 79.2591 90.7514C79.1869 91.1325 74.9262 92.7732 68.7488 91.6045C68.7488 91.6045 75.7216 93.1603 74.938 96.8796C74.1543 100.599 64.5364 97.9899 64.5364 97.9899C64.5364 97.9899 73.6508 99.0829 72.8239 103.031C71.9969 106.978 46.3401 102.293 38.068 100.728C29.7959 99.1626 16.4286 97.0545 16.4286 97.0545" stroke="black" stroke-width="2" stroke-miterlimit="10" stroke-linecap="round"/>
<path d="M33.5614 40.5607C33.0131 41.9094 32.8895 42.6122 32.6136 44.0095" stroke="black" stroke-width="2" stroke-linecap="round"/>
<path d="M31.6422 39.1702L35.5654 41.7855" stroke="black" stroke-width="2" stroke-linecap="round"/>
<path d="M45.4908 42.8254C44.9424 44.1742 44.8189 44.877 44.543 46.2742" stroke="black" stroke-width="2" stroke-linecap="round"/>
<path d="M43.2006 42.8173L47.904 42.4689" stroke="black" stroke-width="2" stroke-linecap="round"/>
<path d="M85.7143 39.9637C85.7143 38.5526 82.8774 38.2341 80.0305 38.4258C82.592 37.1696 84.8893 35.4765 84.1832 34.2545C83.477 33.0326 80.8608 34.1737 78.4912 35.762C80.0808 33.3945 81.223 30.7807 80.0001 30.0752C78.777 29.3696 77.0824 31.6649 75.825 34.2241C76.0169 31.3798 75.6979 28.5455 74.2856 28.5455C72.8733 28.5455 72.5545 31.3798 72.7463 34.2241C71.489 31.665 69.7944 29.3698 68.5713 30.0752C67.3482 30.7807 68.4905 33.3945 70.0802 35.762C67.7105 34.1739 65.0943 33.0326 64.3882 34.2545C63.682 35.4764 65.9794 37.1696 68.5409 38.4258C65.694 38.2341 62.8571 38.5527 62.8571 39.9637C62.8571 41.3746 65.694 41.6932 68.5409 41.5015C65.9794 42.7577 63.6822 44.4508 64.3882 45.6728C65.0943 46.8947 67.7105 45.7536 70.0802 44.1653C68.4906 46.5328 67.3483 49.1466 68.5713 49.8521C69.7943 50.5577 71.489 48.2624 72.7463 45.7032C72.5545 48.5475 72.8734 51.3818 74.2856 51.3818C75.6978 51.3818 76.0168 48.5475 75.825 45.7032C77.0824 48.2623 78.777 50.5575 80.0001 49.8521C81.223 49.1466 80.0809 46.5328 78.4912 44.1653C80.8608 45.7535 83.477 46.8947 84.1832 45.6728C84.8893 44.4509 82.592 42.7577 80.0305 41.5015C82.8774 41.6932 85.7143 41.3746 85.7143 39.9637Z" fill="#DB5A3D"/>
<path d="M24.1678 52.2548C24.1678 52.2548 29.8794 48.9826 39.8353 51.1008C49.7911 53.2189 52.8205 57.3677 52.8205 57.3677" stroke="black" stroke-width="2" stroke-miterlimit="10" stroke-linecap="round"/>
</svg>
